<svg class="marks" width="691" height="387" viewBox="0 0 691 387" version="1.1" xmlns="http://www.w3.org/2000/svg" xmlns:xlink="http://www.w3.org/1999/xlink"><rect width="691" height="387" style="fill: white;"></rect><g transform="translate(85,50)"><g class="mark-group role-frame root"><g transform="translate(0,0)"><path class="background" d="M0,0h600v300h-600Z" style="fill: none; stroke: #ddd; stroke-width: 0;"></path><g><g class="mark-group role-axis"><g transform="translate(0.5,300.5)"><path class="background" d="M0,0h0v0h0Z" style="pointer-events: none; fill: none;"></path><g><g class="mark-rule role-axis-grid" style="pointer-events: none;"><line transform="translate(0,0)" x2="0" y2="-300" style="fill: none; stroke: #ddd; stroke-width: 1; opacity: 1;"></line><line transform="translate(33,0)" x2="0" y2="-300" style="fill: none; stroke: #ddd; stroke-width: 1; opacity: 1;"></line><line transform="translate(67,0)" x2="0" y2="-300" style="fill: none; stroke: #ddd; stroke-width: 1; opacity: 1;"></line><line transform="translate(100,0)" x2="0" y2="-300" style="fill: none; stroke: #ddd; stroke-width: 1; opacity: 1;"></line><line transform="translate(133,0)" x2="0" y2="-300" style="fill: none; stroke: #ddd; stroke-width: 1; opacity: 1;"></line><line transform="translate(167,0)" x2="0" y2="-300" style="fill: none; stroke: #ddd; stroke-width: 1; opacity: 1;"></line><line transform="translate(200,0)" x2="0" y2="-300" style="fill: none; stroke: #ddd; stroke-width: 1; opacity: 1;"></line><line transform="translate(233,0)" x2="0" y2="-300" style="fill: none; stroke: #ddd; stroke-width: 1; opacity: 1;"></line><line transform="translate(267,0)" x2="0" y2="-300" style="fill: none; stroke: #ddd; stroke-width: 1; opacity: 1;"></line><line transform="translate(300,0)" x2="0" y2="-300" style="fill: none; stroke: #ddd; stroke-width: 1; opacity: 1;"></line><line transform="translate(333,0)" x2="0" y2="-300" style="fill: none; stroke: #ddd; stroke-width: 1; opacity: 1;"></line><line transform="translate(367,0)" x2="0" y2="-300" style="fill: none; stroke: #ddd; stroke-width: 1; opacity: 1;"></line><line transform="translate(400,0)" x2="0" y2="-300" style="fill: none; stroke: #ddd; stroke-width: 1; opacity: 1;"></line><line transform="translate(433,0)" x2="0" y2="-300" style="fill: none; stroke: #ddd; stroke-width: 1; opacity: 1;"></line><line transform="translate(467,0)" x2="0" y2="-300" style="fill: none; stroke: #ddd; stroke-width: 1; opacity: 1;"></line><line transform="translate(500,0)" x2="0" y2="-300" style="fill: none; stroke: #ddd; stroke-width: 1; opacity: 1;"></line><line transform="translate(533,0)" x2="0" y2="-300" style="fill: none; stroke: #ddd; stroke-width: 1; opacity: 1;"></line><line transform="translate(567,0)" x2="0" y2="-300" style="fill: none; stroke: #ddd; stroke-width: 1; opacity: 1;"></line><line transform="translate(600,0)" x2="0" y2="-300" style="fill: none; stroke: #ddd; stroke-width: 1; opacity: 1;"></line></g></g><path class="foreground" d="" style="pointer-events: none; display: none; fill: none;"></path></g></g><g class="mark-group role-axis"><g transform="translate(0.5,300.5)"><path class="background" d="M0,0h0v0h0Z" style="pointer-events: none; fill: none;"></path><g><g class="mark-rule role-axis-tick" style="pointer-events: none;"><line transform="translate(0,0)" x2="0" y2="5" style="fill: none; stroke: #888; stroke-width: 1; opacity: 1;"></line><line transform="translate(33,0)" x2="0" y2="5" style="fill: none; stroke: #888; stroke-width: 1; opacity: 1;"></line><line transform="translate(67,0)" x2="0" y2="5" style="fill: none; stroke: #888; stroke-width: 1; opacity: 1;"></line><line transform="translate(100,0)" x2="0" y2="5" style="fill: none; stroke: #888; stroke-width: 1; opacity: 1;"></line><line transform="translate(133,0)" x2="0" y2="5" style="fill: none; stroke: #888; stroke-width: 1; opacity: 1;"></line><line transform="translate(167,0)" x2="0" y2="5" style="fill: none; stroke: #888; stroke-width: 1; opacity: 1;"></line><line transform="translate(200,0)" x2="0" y2="5" style="fill: none; stroke: #888; stroke-width: 1; opacity: 1;"></line><line transform="translate(233,0)" x2="0" y2="5" style="fill: none; stroke: #888; stroke-width: 1; opacity: 1;"></line><line transform="translate(267,0)" x2="0" y2="5" style="fill: none; stroke: #888; stroke-width: 1; opacity: 1;"></line><line transform="translate(300,0)" x2="0" y2="5" style="fill: none; stroke: #888; stroke-width: 1; opacity: 1;"></line><line transform="translate(333,0)" x2="0" y2="5" style="fill: none; stroke: #888; stroke-width: 1; opacity: 1;"></line><line transform="translate(367,0)" x2="0" y2="5" style="fill: none; stroke: #888; stroke-width: 1; opacity: 1;"></line><line transform="translate(400,0)" x2="0" y2="5" style="fill: none; stroke: #888; stroke-width: 1; opacity: 1;"></line><line transform="translate(433,0)" x2="0" y2="5" style="fill: none; stroke: #888; stroke-width: 1; opacity: 1;"></line><line transform="translate(467,0)" x2="0" y2="5" style="fill: none; stroke: #888; stroke-width: 1; opacity: 1;"></line><line transform="translate(500,0)" x2="0" y2="5" style="fill: none; stroke: #888; stroke-width: 1; opacity: 1;"></line><line transform="translate(533,0)" x2="0" y2="5" style="fill: none; stroke: #888; stroke-width: 1; opacity: 1;"></line><line transform="translate(567,0)" x2="0" y2="5" style="fill: none; stroke: #888; stroke-width: 1; opacity: 1;"></line><line transform="translate(600,0)" x2="0" y2="5" style="fill: none; stroke: #888; stroke-width: 1; opacity: 1;"></line></g><g class="mark-text role-axis-label" style="pointer-events: none;"><text text-anchor="start" transform="translate(0,15)" style="font-family: sans-serif; font-size: 10px; fill: #000; opacity: 1;">-80</text><text text-anchor="middle" transform="translate(33.33333333333333,15)" style="font-family: sans-serif; font-size: 10px; fill: #000; opacity: 1;">-70</text><text text-anchor="middle" transform="translate(66.66666666666666,15)" style="font-family: sans-serif; font-size: 10px; fill: #000; opacity: 1;">-60</text><text text-anchor="middle" transform="translate(100,15)" style="font-family: sans-serif; font-size: 10px; fill: #000; opacity: 1;">-50</text><text text-anchor="middle" transform="translate(133.33333333333331,15)" style="font-family: sans-serif; font-size: 10px; fill: #000; opacity: 1;">-40</text><text text-anchor="middle" transform="translate(166.66666666666669,15)" style="font-family: sans-serif; font-size: 10px; fill: #000; opacity: 1;">-30</text><text text-anchor="middle" transform="translate(200,15)" style="font-family: sans-serif; font-size: 10px; fill: #000; opacity: 1;">-20</text><text text-anchor="middle" transform="translate(233.33333333333334,15)" style="font-family: sans-serif; font-size: 10px; fill: #000; opacity: 1;">-10</text><text text-anchor="middle" transform="translate(266.66666666666663,15)" style="font-family: sans-serif; font-size: 10px; fill: #000; opacity: 1;">0</text><text text-anchor="middle" transform="translate(300,15)" style="font-family: sans-serif; font-size: 10px; fill: #000; opacity: 1;">10</text><text text-anchor="middle" transform="translate(333.33333333333337,15)" style="font-family: sans-serif; font-size: 10px; fill: #000; opacity: 1;">20</text><text text-anchor="middle" transform="translate(366.6666666666667,15)" style="font-family: sans-serif; font-size: 10px; fill: #000; opacity: 1;">30</text><text text-anchor="middle" transform="translate(400,15)" style="font-family: sans-serif; font-size: 10px; fill: #000; opacity: 1;">40</text><text text-anchor="middle" transform="translate(433.3333333333333,15)" style="font-family: sans-serif; font-size: 10px; fill: #000; opacity: 1;">50</text><text text-anchor="middle" transform="translate(466.6666666666667,15)" style="font-family: sans-serif; font-size: 10px; fill: #000; opacity: 1;">60</text><text text-anchor="middle" transform="translate(500,15)" style="font-family: sans-serif; font-size: 10px; fill: #000; opacity: 1;">70</text><text text-anchor="middle" transform="translate(533.3333333333333,15)" style="font-family: sans-serif; font-size: 10px; fill: #000; opacity: 1;">80</text><text text-anchor="middle" transform="translate(566.6666666666666,15)" style="font-family: sans-serif; font-size: 10px; fill: #000; opacity: 1;">90</text><text text-anchor="end" transform="translate(600,15)" style="font-family: sans-serif; font-size: 10px; fill: #000; opacity: 1;">100</text></g><g class="mark-rule role-axis-domain" style="pointer-events: none;"><line transform="translate(0,0)" x2="600" y2="0" style="fill: none; stroke: #888; stroke-width: 1; opacity: 1;"></line></g><g class="mark-text role-axis-title" style="pointer-events: none;"><text text-anchor="middle" transform="translate(300,30)" style="font-family: sans-serif; font-size: 11px; font-weight: bold; fill: #000; opacity: 1;">percentage_start, percentage_end</text></g></g><path class="foreground" d="" style="pointer-events: none; display: none; fill: none;"></path></g></g><g class="mark-group role-axis"><g transform="translate(-4.5,0.5)"><path class="background" d="M0,0h0v0h0Z" style="pointer-events: none; fill: none;"></path><g><g class="mark-text role-axis-label" style="pointer-events: none;"><text text-anchor="end" transform="translate(-2,27.5)" style="font-family: sans-serif; font-size: 10px; fill: #000; opacity: 1;">Question 1</text><text text-anchor="end" transform="translate(-2,77.5)" style="font-family: sans-serif; font-size: 10px; fill: #000; opacity: 1;">Question 2</text><text text-anchor="end" transform="translate(-2,127.5)" style="font-family: sans-serif; font-size: 10px; fill: #000; opacity: 1;">Question 3</text><text text-anchor="end" transform="translate(-2,177.5)" style="font-family: sans-serif; font-size: 10px; fill: #000; opacity: 1;">Question 4</text><text text-anchor="end" transform="translate(-2,227.5)" style="font-family: sans-serif; font-size: 10px; fill: #000; opacity: 1;">Question 5</text><text text-anchor="end" transform="translate(-2,277.5)" style="font-family: sans-serif; font-size: 10px; fill: #000; opacity: 1;">Question 6</text></g><g class="mark-text role-axis-title" style="pointer-events: none;"><text text-anchor="middle" transform="translate(-64,150) rotate(-90) translate(0,-2)" style="font-family: sans-serif; font-size: 11px; font-weight: bold; fill: #000; opacity: 1;">Question</text></g></g><path class="foreground" d="" style="pointer-events: none; display: none; fill: none;"></path></g></g><g class="mark-rect role-mark marks"><path d="M266.66666666666663,2.5h0v45h0Z" style="fill: #c30d24;"></path><path d="M266.66666666666663,2.5h0v45h0Z" style="fill: #f3a583;"></path><path d="M240,2.5h53.333333333333314v45h-53.333333333333314Z" style="fill: #cccccc;"></path><path d="M293.3333333333333,2.5h276.6666666666667v45h-276.6666666666667Z" style="fill: #94c6da;"></path><path d="M570,2.5h0v45h0Z" style="fill: #1770ab;"></path><path d="M103.33333333333333,52.5h53.33333333333336v45h-53.33333333333336Z" style="fill: #c30d24;"></path><path d="M156.66666666666669,52.5h0v45h0Z" style="fill: #f3a583;"></path><path d="M156.66666666666669,52.5h220v45h-220Z" style="fill: #cccccc;"></path><path d="M376.6666666666667,52.5h0v45h0Z" style="fill: #94c6da;"></path><path d="M376.6666666666667,52.5h53.333333333333314v45h-53.333333333333314Z" style="fill: #1770ab;"></path><path d="M266.66666666666663,102.5h0v45h0Z" style="fill: #c30d24;"></path><path d="M266.66666666666663,102.5h0v45h0Z" style="fill: #f3a583;"></path><path d="M266.66666666666663,102.5h0v45h0Z" style="fill: #cccccc;"></path><path d="M266.66666666666663,102.5h276.66666666666674v45h-276.66666666666674Z" style="fill: #94c6da;"></path><path d="M543.3333333333334,102.5h56.66666666666663v45h-56.66666666666663Z" style="fill: #1770ab;"></path><path d="M16.666666666666664,152.5h56.666666666666664v45h-56.666666666666664Z" style="fill: #c30d24;"></path><path d="M73.33333333333333,152.5h110.00000000000001v45h-110.00000000000001Z" style="fill: #f3a583;"></path><path d="M183.33333333333334,152.5h166.66666666666666v45h-166.66666666666666Z" style="fill: #cccccc;"></path><path d="M350,152.5h0v45h0Z" style="fill: #94c6da;"></path><path d="M350,152.5h0v45h0Z" style="fill: #1770ab;"></path><path d="M210,202.5h56.66666666666663v45h-56.66666666666663Z" style="fill: #c30d24;"></path><path d="M266.66666666666663,202.5h0v45h0Z" style="fill: #f3a583;"></path><path d="M266.66666666666663,202.5h0v45h0Z" style="fill: #cccccc;"></path><path d="M266.66666666666663,202.5h276.66666666666674v45h-276.66666666666674Z" style="fill: #94c6da;"></path><path d="M543.3333333333334,202.5h0v45h0Z" style="fill: #1770ab;"></path><path d="M210,252.5h0v45h0Z" style="fill: #c30d24;"></path><path d="M210,252.5h56.66666666666663v45h-56.66666666666663Z" style="fill: #f3a583;"></path><path d="M266.66666666666663,252.5h0v45h0Z" style="fill: #cccccc;"></path><path d="M266.66666666666663,252.5h220.00000000000006v45h-220.00000000000006Z" style="fill: #94c6da;"></path><path d="M486.6666666666667,252.5h56.666666666666686v45h-56.666666666666686Z" style="fill: #1770ab;"></path></g><g class="mark-group role-legend"><g transform="translate(0,-45)"><path class="background" d="M0,0h451v27h-451Z" style="pointer-events: none; fill: none;"></path><g><g class="mark-group role-legend-entry"><g transform="translate(0,16)"><path class="background" d="M0,0h0v0h0Z" style="pointer-events: none; fill: none;"></path><g><g class="mark-group role-scope"><g transform="translate(0,0)"><path class="background" d="M0,0h93.822265625v11h-93.822265625Z" style="pointer-events: none; fill: none; opacity: 1;"></path><g><g class="mark-symbol role-legend-symbol" style="pointer-events: none;"><path transform="translate(6,6)" d="M-5,-5h10v10h-10Z" style="fill: #c30d24; stroke-width: 1.5; opacity: 1;"></path></g><g class="mark-text role-legend-label" style="pointer-events: none;"><text text-anchor="start" transform="translate(16,9)" style="font-family: sans-serif; font-size: 10px; fill: #000; opacity: 1;">Strongly disagree</text></g></g><path class="foreground" d="" style="pointer-events: none; display: none; fill: none;"></path></g><g transform="translate(104,0)"><path class="background" d="M0,0h56.01953125v11h-56.01953125Z" style="pointer-events: none; fill: none; opacity: 1;"></path><g><g class="mark-symbol role-legend-symbol" style="pointer-events: none;"><path transform="translate(6,6)" d="M-5,-5h10v10h-10Z" style="fill: #f3a583; stroke-width: 1.5; opacity: 1;"></path></g><g class="mark-text role-legend-label" style="pointer-events: none;"><text text-anchor="start" transform="translate(16,9)" style="font-family: sans-serif; font-size: 10px; fill: #000; opacity: 1;">Disagree</text></g></g><path class="foreground" d="" style="pointer-events: none; display: none; fill: none;"></path></g><g transform="translate(171,0)"><path class="background" d="M0,0h134.9599609375v11h-134.9599609375Z" style="pointer-events: none; fill: none; opacity: 1;"></path><g><g class="mark-symbol role-legend-symbol" style="pointer-events: none;"><path transform="translate(6,6)" d="M-5,-5h10v10h-10Z" style="fill: #cccccc; stroke-width: 1.5; opacity: 1;"></path></g><g class="mark-text role-legend-label" style="pointer-events: none;"><text text-anchor="start" transform="translate(16,9)" style="font-family: sans-serif; font-size: 10px; fill: #000; opacity: 1;">Neither agree nor disagree</text></g></g><path class="foreground" d="" style="pointer-events: none; display: none; fill: none;"></path></g><g transform="translate(316,0)"><path class="background" d="M0,0h42.6845703125v11h-42.6845703125Z" style="pointer-events: none; fill: none; opacity: 1;"></path><g><g class="mark-symbol role-legend-symbol" style="pointer-events: none;"><path transform="translate(6,6)" d="M-5,-5h10v10h-10Z" style="fill: #94c6da; stroke-width: 1.5; opacity: 1;"></path></g><g class="mark-text role-legend-label" style="pointer-events: none;"><text text-anchor="start" transform="translate(16,9)" style="font-family: sans-serif; font-size: 10px; fill: #000; opacity: 1;">Agree</text></g></g><path class="foreground" d="" style="pointer-events: none; display: none; fill: none;"></path></g><g transform="translate(369,0)"><path class="background" d="M0,0h81.0390625v11h-81.0390625Z" style="pointer-events: none; fill: none; opacity: 1;"></path><g><g class="mark-symbol role-legend-symbol" style="pointer-events: none;"><path transform="translate(6,6)" d="M-5,-5h10v10h-10Z" style="fill: #1770ab; stroke-width: 1.5; opacity: 1;"></path></g><g class="mark-text role-legend-label" style="pointer-events: none;"><text text-anchor="start" transform="translate(16,9)" style="font-family: sans-serif; font-size: 10px; fill: #000; opacity: 1;">Strongly agree</text></g></g><path class="foreground" d="" style="pointer-events: none; display: none; fill: none;"></path></g></g></g><path class="foreground" d="" style="pointer-events: none; display: none; fill: none;"></path></g></g><g class="mark-text role-legend-title" style="pointer-events: none;"><text text-anchor="start" transform="translate(0,9)" style="font-family: sans-serif; font-size: 11px; font-weight: bold; fill: #000; opacity: 1;">Response</text></g></g><path class="foreground" d="" style="pointer-events: none; display: none; fill: none;"></path></g></g></g><path class="foreground" d="" style="display: none; fill: none;"></path></g></g></g></svg>