<svg class="marks" width="643" height="162" viewBox="0 0 643 162" version="1.1" xmlns="http://www.w3.org/2000/svg" xmlns:xlink="http://www.w3.org/1999/xlink"><rect width="643" height="162" style="fill: white;"></rect><defs><clipPath id="clip1"><rect x="0" y="0" width="400" height="120"></rect></clipPath></defs><g transform="translate(85,5)"><g class="mark-group role-frame root"><g transform="translate(0,0)"><path class="background" d="M0.5,0.5h400v120h-400Z" style="fill: none; stroke: #ddd;"></path><g><g class="mark-group role-axis"><g transform="translate(0.5,120.5)"><path class="background" d="M0,0h0v0h0Z" style="pointer-events: none; fill: none;"></path><g><g class="mark-rule role-axis-grid" style="pointer-events: none;"><line transform="translate(0,0)" x2="0" y2="-120" style="fill: none; stroke: #ddd; stroke-width: 1; opacity: 1;"></line><line transform="translate(44,0)" x2="0" y2="-120" style="fill: none; stroke: #ddd; stroke-width: 1; opacity: 1;"></line><line transform="translate(89,0)" x2="0" y2="-120" style="fill: none; stroke: #ddd; stroke-width: 1; opacity: 1;"></line><line transform="translate(133,0)" x2="0" y2="-120" style="fill: none; stroke: #ddd; stroke-width: 1; opacity: 1;"></line><line transform="translate(178,0)" x2="0" y2="-120" style="fill: none; stroke: #ddd; stroke-width: 1; opacity: 1;"></line><line transform="translate(222,0)" x2="0" y2="-120" style="fill: none; stroke: #ddd; stroke-width: 1; opacity: 1;"></line><line transform="translate(267,0)" x2="0" y2="-120" style="fill: none; stroke: #ddd; stroke-width: 1; opacity: 1;"></line><line transform="translate(311,0)" x2="0" y2="-120" style="fill: none; stroke: #ddd; stroke-width: 1; opacity: 1;"></line><line transform="translate(356,0)" x2="0" y2="-120" style="fill: none; stroke: #ddd; stroke-width: 1; opacity: 1;"></line><line transform="translate(400,0)" x2="0" y2="-120" style="fill: none; stroke: #ddd; stroke-width: 1; opacity: 1;"></line></g></g><path class="foreground" d="" style="pointer-events: none; display: none; fill: none;"></path></g></g><g class="mark-group role-axis"><g transform="translate(0.5,120.5)"><path class="background" d="M0,0h0v0h0Z" style="pointer-events: none; fill: none;"></path><g><g class="mark-rule role-axis-tick" style="pointer-events: none;"><line transform="translate(0,0)" x2="0" y2="5" style="fill: none; stroke: #888; stroke-width: 1; opacity: 1;"></line><line transform="translate(44,0)" x2="0" y2="5" style="fill: none; stroke: #888; stroke-width: 1; opacity: 1;"></line><line transform="translate(89,0)" x2="0" y2="5" style="fill: none; stroke: #888; stroke-width: 1; opacity: 1;"></line><line transform="translate(133,0)" x2="0" y2="5" style="fill: none; stroke: #888; stroke-width: 1; opacity: 1;"></line><line transform="translate(178,0)" x2="0" y2="5" style="fill: none; stroke: #888; stroke-width: 1; opacity: 1;"></line><line transform="translate(222,0)" x2="0" y2="5" style="fill: none; stroke: #888; stroke-width: 1; opacity: 1;"></line><line transform="translate(267,0)" x2="0" y2="5" style="fill: none; stroke: #888; stroke-width: 1; opacity: 1;"></line><line transform="translate(311,0)" x2="0" y2="5" style="fill: none; stroke: #888; stroke-width: 1; opacity: 1;"></line><line transform="translate(356,0)" x2="0" y2="5" style="fill: none; stroke: #888; stroke-width: 1; opacity: 1;"></line><line transform="translate(400,0)" x2="0" y2="5" style="fill: none; stroke: #888; stroke-width: 1; opacity: 1;"></line></g><g class="mark-text role-axis-label" style="pointer-events: none;"><text text-anchor="start" transform="translate(0,15)" style="font-family: sans-serif; font-size: 10px; fill: #000; opacity: 1;">-80</text><text text-anchor="middle" transform="translate(44.44444444444444,15)" style="font-family: sans-serif; font-size: 10px; fill: #000; opacity: 1;">-60</text><text text-anchor="middle" transform="translate(88.88888888888889,15)" style="font-family: sans-serif; font-size: 10px; fill: #000; opacity: 1;">-40</text><text text-anchor="middle" transform="translate(133.33333333333331,15)" style="font-family: sans-serif; font-size: 10px; fill: #000; opacity: 1;">-20</text><text text-anchor="middle" transform="translate(177.77777777777777,15)" style="font-family: sans-serif; font-size: 10px; fill: #000; opacity: 1;">0</text><text text-anchor="middle" transform="translate(222.22222222222223,15)" style="font-family: sans-serif; font-size: 10px; fill: #000; opacity: 1;">20</text><text text-anchor="middle" transform="translate(266.66666666666663,15)" style="font-family: sans-serif; font-size: 10px; fill: #000; opacity: 1;">40</text><text text-anchor="middle" transform="translate(311.11111111111114,15)" style="font-family: sans-serif; font-size: 10px; fill: #000; opacity: 1;">60</text><text text-anchor="middle" transform="translate(355.55555555555554,15)" style="font-family: sans-serif; font-size: 10px; fill: #000; opacity: 1;">80</text><text text-anchor="end" transform="translate(400,15)" style="font-family: sans-serif; font-size: 10px; fill: #000; opacity: 1;">100</text></g><g class="mark-rule role-axis-domain" style="pointer-events: none;"><line transform="translate(0,0)" x2="400" y2="0" style="fill: none; stroke: #888; stroke-width: 1; opacity: 1;"></line></g><g class="mark-text role-axis-title" style="pointer-events: none;"><text text-anchor="middle" transform="translate(200,30)" style="font-family: sans-serif; font-size: 11px; font-weight: bold; fill: #000; opacity: 1;">percentage_start, percentage_end</text></g></g><path class="foreground" d="" style="pointer-events: none; display: none; fill: none;"></path></g></g><g class="mark-group role-axis"><g transform="translate(-4.5,0.5)"><path class="background" d="M0,0h0v0h0Z" style="pointer-events: none; fill: none;"></path><g><g class="mark-text role-axis-label" style="pointer-events: none;"><text text-anchor="end" transform="translate(-2,12.5)" style="font-family: sans-serif; font-size: 10px; fill: #000; opacity: 1;">Question 1</text><text text-anchor="end" transform="translate(-2,32.5)" style="font-family: sans-serif; font-size: 10px; fill: #000; opacity: 1;">Question 2</text><text text-anchor="end" transform="translate(-2,52.5)" style="font-family: sans-serif; font-size: 10px; fill: #000; opacity: 1;">Question 3</text><text text-anchor="end" transform="translate(-2,72.5)" style="font-family: sans-serif; font-size: 10px; fill: #000; opacity: 1;">Question 4</text><text text-anchor="end" transform="translate(-2,92.5)" style="font-family: sans-serif; font-size: 10px; fill: #000; opacity: 1;">Question 5</text><text text-anchor="end" transform="translate(-2,112.5)" style="font-family: sans-serif; font-size: 10px; fill: #000; opacity: 1;">Question 6</text></g><g class="mark-text role-axis-title" style="pointer-events: none;"><text text-anchor="middle" transform="translate(-64,60) rotate(-90) translate(0,-2)" style="font-family: sans-serif; font-size: 11px; font-weight: bold; fill: #000; opacity: 1;">Question</text></g></g><path class="foreground" d="" style="pointer-events: none; display: none; fill: none;"></path></g></g><g class="mark-rect role-mark marks" clip-path="url(#clip1)"><path d="M177.77777777777777,1h0v18h0Z" style="fill: #c30d24;"></path><path d="M177.77777777777777,1h0v18h0Z" style="fill: #f3a583;"></path><path d="M160,1h35.55555555555554v18h-35.55555555555554Z" style="fill: #cccccc;"></path><path d="M195.55555555555554,1h184.44444444444446v18h-184.44444444444446Z" style="fill: #94c6da;"></path><path d="M380,1h0v18h0Z" style="fill: #1770ab;"></path><path d="M68.88888888888889,21h35.55555555555557v18h-35.55555555555557Z" style="fill: #c30d24;"></path><path d="M104.44444444444446,21h0v18h0Z" style="fill: #f3a583;"></path><path d="M104.44444444444446,21h146.66666666666666v18h-146.66666666666666Z" style="fill: #cccccc;"></path><path d="M251.11111111111111,21h0v18h0Z" style="fill: #94c6da;"></path><path d="M251.11111111111111,21h35.55555555555557v18h-35.55555555555557Z" style="fill: #1770ab;"></path><path d="M177.77777777777777,41h0v18h0Z" style="fill: #c30d24;"></path><path d="M177.77777777777777,41h0v18h0Z" style="fill: #f3a583;"></path><path d="M177.77777777777777,41h0v18h0Z" style="fill: #cccccc;"></path><path d="M177.77777777777777,41h184.44444444444446v18h-184.44444444444446Z" style="fill: #94c6da;"></path><path d="M362.22222222222223,41h37.77777777777777v18h-37.77777777777777Z" style="fill: #1770ab;"></path><path d="M11.11111111111111,61h37.77777777777777v18h-37.77777777777777Z" style="fill: #c30d24;"></path><path d="M48.888888888888886,61h73.33333333333334v18h-73.33333333333334Z" style="fill: #f3a583;"></path><path d="M122.22222222222223,61h111.11111111111111v18h-111.11111111111111Z" style="fill: #cccccc;"></path><path d="M233.33333333333334,61h0v18h0Z" style="fill: #94c6da;"></path><path d="M233.33333333333334,61h0v18h0Z" style="fill: #1770ab;"></path><path d="M140,81h37.77777777777777v18h-37.77777777777777Z" style="fill: #c30d24;"></path><path d="M177.77777777777777,81h0v18h0Z" style="fill: #f3a583;"></path><path d="M177.77777777777777,81h0v18h0Z" style="fill: #cccccc;"></path><path d="M177.77777777777777,81h184.44444444444446v18h-184.44444444444446Z" style="fill: #94c6da;"></path><path d="M362.22222222222223,81h0v18h0Z" style="fill: #1770ab;"></path><path d="M140,101h0v18h0Z" style="fill: #c30d24;"></path><path d="M140,101h37.77777777777777v18h-37.77777777777777Z" style="fill: #f3a583;"></path><path d="M177.77777777777777,101h0v18h0Z" style="fill: #cccccc;"></path><path d="M177.77777777777777,101h146.66666666666669v18h-146.66666666666669Z" style="fill: #94c6da;"></path><path d="M324.44444444444446,101h37.77777777777777v18h-37.77777777777777Z" style="fill: #1770ab;"></path></g><g class="mark-group role-legend"><g transform="translate(418,0)"><path class="background" d="M0,0h135v79h-135Z" style="pointer-events: none; fill: none;"></path><g><g class="mark-group role-legend-entry"><g transform="translate(0,16)"><path class="background" d="M0,0h0v0h0Z" style="pointer-events: none; fill: none;"></path><g><g class="mark-group role-scope"><g transform="translate(0,0)"><path class="background" d="M0,0h134.9599609375v11h-134.9599609375Z" style="pointer-events: none; fill: none; opacity: 1;"></path><g><g class="mark-symbol role-legend-symbol" style="pointer-events: none;"><path transform="translate(6,6)" d="M-5,-5h10v10h-10Z" style="fill: #c30d24; stroke-width: 1.5; opacity: 1;"></path></g><g class="mark-text role-legend-label" style="pointer-events: none;"><text text-anchor="start" transform="translate(16,9)" style="font-family: sans-serif; font-size: 10px; fill: #000; opacity: 1;">Strongly disagree</text></g></g><path class="foreground" d="" style="pointer-events: none; display: none; fill: none;"></path></g><g transform="translate(0,13)"><path class="background" d="M0,0h134.9599609375v11h-134.9599609375Z" style="pointer-events: none; fill: none; opacity: 1;"></path><g><g class="mark-symbol role-legend-symbol" style="pointer-events: none;"><path transform="translate(6,6)" d="M-5,-5h10v10h-10Z" style="fill: #f3a583; stroke-width: 1.5; opacity: 1;"></path></g><g class="mark-text role-legend-label" style="pointer-events: none;"><text text-anchor="start" transform="translate(16,9)" style="font-family: sans-serif; font-size: 10px; fill: #000; opacity: 1;">Disagree</text></g></g><path class="foreground" d="" style="pointer-events: none; display: none; fill: none;"></path></g><g transform="translate(0,26)"><path class="background" d="M0,0h134.9599609375v11h-134.9599609375Z" style="pointer-events: none; fill: none; opacity: 1;"></path><g><g class="mark-symbol role-legend-symbol" style="pointer-events: none;"><path transform="translate(6,6)" d="M-5,-5h10v10h-10Z" style="fill: #cccccc; stroke-width: 1.5; opacity: 1;"></path></g><g class="mark-text role-legend-label" style="pointer-events: none;"><text text-anchor="start" transform="translate(16,9)" style="font-family: sans-serif; font-size: 10px; fill: #000; opacity: 1;">Neither agree nor disagree</text></g></g><path class="foreground" d="" style="pointer-events: none; display: none; fill: none;"></path></g><g transform="translate(0,39)"><path class="background" d="M0,0h134.9599609375v11h-134.9599609375Z" style="pointer-events: none; fill: none; opacity: 1;"></path><g><g class="mark-symbol role-legend-symbol" style="pointer-events: none;"><path transform="translate(6,6)" d="M-5,-5h10v10h-10Z" style="fill: #94c6da; stroke-width: 1.5; opacity: 1;"></path></g><g class="mark-text role-legend-label" style="pointer-events: none;"><text text-anchor="start" transform="translate(16,9)" style="font-family: sans-serif; font-size: 10px; fill: #000; opacity: 1;">Agree</text></g></g><path class="foreground" d="" style="pointer-events: none; display: none; fill: none;"></path></g><g transform="translate(0,52)"><path class="background" d="M0,0h134.9599609375v11h-134.9599609375Z" style="pointer-events: none; fill: none; opacity: 1;"></path><g><g class="mark-symbol role-legend-symbol" style="pointer-events: none;"><path transform="translate(6,6)" d="M-5,-5h10v10h-10Z" style="fill: #1770ab; stroke-width: 1.5; opacity: 1;"></path></g><g class="mark-text role-legend-label" style="pointer-events: none;"><text text-anchor="start" transform="translate(16,9)" style="font-family: sans-serif; font-size: 10px; fill: #000; opacity: 1;">Strongly agree</text></g></g><path class="foreground" d="" style="pointer-events: none; display: none; fill: none;"></path></g></g></g><path class="foreground" d="" style="pointer-events: none; display: none; fill: none;"></path></g></g><g class="mark-text role-legend-title" style="pointer-events: none;"><text text-anchor="start" transform="translate(0,9)" style="font-family: sans-serif; font-size: 11px; font-weight: bold; fill: #000; opacity: 1;">Response</text></g></g><path class="foreground" d="" style="pointer-events: none; display: none; fill: none;"></path></g></g></g><path class="foreground" d="" style="display: none; fill: none;"></path></g></g></g></svg>