<svg class="marks" width="691" height="371" viewBox="0 0 691 371" version="1.1" xmlns="http://www.w3.org/2000/svg" xmlns:xlink="http://www.w3.org/1999/xlink"><rect width="691" height="371" style="fill: white;"></rect><g transform="translate(85,34)"><g class="mark-group role-frame root"><g transform="translate(0,0)"><path class="background" d="M0,0h600v300h-600Z" style="fill: none; stroke: #ddd; stroke-width: 0;"></path><g><g class="mark-group role-axis"><g transform="translate(0.5,300.5)"><path class="background" d="M0,0h0v0h0Z" style="pointer-events: none; fill: none;"></path><g><g class="mark-rule role-axis-grid" style="pointer-events: none;"><line transform="translate(0,0)" x2="0" y2="-300" style="fill: none; stroke: #ddd; stroke-width: 1; opacity: 1;"></line><line transform="translate(43,0)" x2="0" y2="-300" style="fill: none; stroke: #ddd; stroke-width: 1; opacity: 1;"></line><line transform="translate(86,0)" x2="0" y2="-300" style="fill: none; stroke: #ddd; stroke-width: 1; opacity: 1;"></line><line transform="translate(129,0)" x2="0" y2="-300" style="fill: none; stroke: #ddd; stroke-width: 1; opacity: 1;"></line><line transform="translate(171,0)" x2="0" y2="-300" style="fill: none; stroke: #ddd; stroke-width: 1; opacity: 1;"></line><line transform="translate(214,0)" x2="0" y2="-300" style="fill: none; stroke: #ddd; stroke-width: 1; opacity: 1;"></line><line transform="translate(257,0)" x2="0" y2="-300" style="fill: none; stroke: #ddd; stroke-width: 1; opacity: 1;"></line><line transform="translate(300,0)" x2="0" y2="-300" style="fill: none; stroke: #ddd; stroke-width: 1; opacity: 1;"></line><line transform="translate(343,0)" x2="0" y2="-300" style="fill: none; stroke: #ddd; stroke-width: 1; opacity: 1;"></line><line transform="translate(386,0)" x2="0" y2="-300" style="fill: none; stroke: #ddd; stroke-width: 1; opacity: 1;"></line><line transform="translate(429,0)" x2="0" y2="-300" style="fill: none; stroke: #ddd; stroke-width: 1; opacity: 1;"></line><line transform="translate(471,0)" x2="0" y2="-300" style="fill: none; stroke: #ddd; stroke-width: 1; opacity: 1;"></line><line transform="translate(514,0)" x2="0" y2="-300" style="fill: none; stroke: #ddd; stroke-width: 1; opacity: 1;"></line><line transform="translate(557,0)" x2="0" y2="-300" style="fill: none; stroke: #ddd; stroke-width: 1; opacity: 1;"></line><line transform="translate(600,0)" x2="0" y2="-300" style="fill: none; stroke: #ddd; stroke-width: 1; opacity: 1;"></line></g></g><path class="foreground" d="" style="pointer-events: none; display: none; fill: none;"></path></g></g><g class="mark-group role-axis"><g transform="translate(0.5,300.5)"><path class="background" d="M0,0h0v0h0Z" style="pointer-events: none; fill: none;"></path><g><g class="mark-rule role-axis-tick" style="pointer-events: none;"><line transform="translate(0,0)" x2="0" y2="5" style="fill: none; stroke: #888; stroke-width: 1; opacity: 1;"></line><line transform="translate(43,0)" x2="0" y2="5" style="fill: none; stroke: #888; stroke-width: 1; opacity: 1;"></line><line transform="translate(86,0)" x2="0" y2="5" style="fill: none; stroke: #888; stroke-width: 1; opacity: 1;"></line><line transform="translate(129,0)" x2="0" y2="5" style="fill: none; stroke: #888; stroke-width: 1; opacity: 1;"></line><line transform="translate(171,0)" x2="0" y2="5" style="fill: none; stroke: #888; stroke-width: 1; opacity: 1;"></line><line transform="translate(214,0)" x2="0" y2="5" style="fill: none; stroke: #888; stroke-width: 1; opacity: 1;"></line><line transform="translate(257,0)" x2="0" y2="5" style="fill: none; stroke: #888; stroke-width: 1; opacity: 1;"></line><line transform="translate(300,0)" x2="0" y2="5" style="fill: none; stroke: #888; stroke-width: 1; opacity: 1;"></line><line transform="translate(343,0)" x2="0" y2="5" style="fill: none; stroke: #888; stroke-width: 1; opacity: 1;"></line><line transform="translate(386,0)" x2="0" y2="5" style="fill: none; stroke: #888; stroke-width: 1; opacity: 1;"></line><line transform="translate(429,0)" x2="0" y2="5" style="fill: none; stroke: #888; stroke-width: 1; opacity: 1;"></line><line transform="translate(471,0)" x2="0" y2="5" style="fill: none; stroke: #888; stroke-width: 1; opacity: 1;"></line><line transform="translate(514,0)" x2="0" y2="5" style="fill: none; stroke: #888; stroke-width: 1; opacity: 1;"></line><line transform="translate(557,0)" x2="0" y2="5" style="fill: none; stroke: #888; stroke-width: 1; opacity: 1;"></line><line transform="translate(600,0)" x2="0" y2="5" style="fill: none; stroke: #888; stroke-width: 1; opacity: 1;"></line></g><g class="mark-text role-axis-label" style="pointer-events: none;"><text text-anchor="start" transform="translate(0,15)" style="font-family: sans-serif; font-size: 10px; fill: #000; opacity: 1;">-40</text><text text-anchor="middle" transform="translate(42.857142857142854,15)" style="font-family: sans-serif; font-size: 10px; fill: #000; opacity: 1;">-30</text><text text-anchor="middle" transform="translate(85.71428571428571,15)" style="font-family: sans-serif; font-size: 10px; fill: #000; opacity: 1;">-20</text><text text-anchor="middle" transform="translate(128.57142857142856,15)" style="font-family: sans-serif; font-size: 10px; fill: #000; opacity: 1;">-10</text><text text-anchor="middle" transform="translate(171.42857142857142,15)" style="font-family: sans-serif; font-size: 10px; fill: #000; opacity: 1;">0</text><text text-anchor="middle" transform="translate(214.28571428571428,15)" style="font-family: sans-serif; font-size: 10px; fill: #000; opacity: 1;">10</text><text text-anchor="middle" transform="translate(257.1428571428571,15)" style="font-family: sans-serif; font-size: 10px; fill: #000; opacity: 1;">20</text><text text-anchor="middle" transform="translate(300,15)" style="font-family: sans-serif; font-size: 10px; fill: #000; opacity: 1;">30</text><text text-anchor="middle" transform="translate(342.85714285714283,15)" style="font-family: sans-serif; font-size: 10px; fill: #000; opacity: 1;">40</text><text text-anchor="middle" transform="translate(385.7142857142857,15)" style="font-family: sans-serif; font-size: 10px; fill: #000; opacity: 1;">50</text><text text-anchor="middle" transform="translate(428.57142857142856,15)" style="font-family: sans-serif; font-size: 10px; fill: #000; opacity: 1;">60</text><text text-anchor="middle" transform="translate(471.42857142857144,15)" style="font-family: sans-serif; font-size: 10px; fill: #000; opacity: 1;">70</text><text text-anchor="middle" transform="translate(514.2857142857142,15)" style="font-family: sans-serif; font-size: 10px; fill: #000; opacity: 1;">80</text><text text-anchor="middle" transform="translate(557.1428571428571,15)" style="font-family: sans-serif; font-size: 10px; fill: #000; opacity: 1;">90</text><text text-anchor="end" transform="translate(600,15)" style="font-family: sans-serif; font-size: 10px; fill: #000; opacity: 1;">100</text></g><g class="mark-rule role-axis-domain" style="pointer-events: none;"><line transform="translate(0,0)" x2="600" y2="0" style="fill: none; stroke: #888; stroke-width: 1; opacity: 1;"></line></g><g class="mark-text role-axis-title" style="pointer-events: none;"><text text-anchor="middle" transform="translate(300,30)" style="font-family: sans-serif; font-size: 11px; font-weight: bold; fill: #000; opacity: 1;">percentage_start, percentage_end</text></g></g><path class="foreground" d="" style="pointer-events: none; display: none; fill: none;"></path></g></g><g class="mark-group role-axis"><g transform="translate(-4.5,0.5)"><path class="background" d="M0,0h0v0h0Z" style="pointer-events: none; fill: none;"></path><g><g class="mark-text role-axis-label" style="pointer-events: none;"><text text-anchor="end" transform="translate(-2,27.5)" style="font-family: sans-serif; font-size: 10px; fill: #000; opacity: 1;">Clarity (C)</text><text text-anchor="end" transform="translate(-2,77.5)" style="font-family: sans-serif; font-size: 10px; fill: #000; opacity: 1;">Clarity (M)</text><text text-anchor="end" transform="translate(-2,127.5)" style="font-family: sans-serif; font-size: 10px; fill: #000; opacity: 1;">Consistency (C)</text><text text-anchor="end" transform="translate(-2,177.5)" style="font-family: sans-serif; font-size: 10px; fill: #000; opacity: 1;">Consistency (M)</text><text text-anchor="end" transform="translate(-2,227.5)" style="font-family: sans-serif; font-size: 10px; fill: #000; opacity: 1;">Simplicity (C)</text><text text-anchor="end" transform="translate(-2,277.5)" style="font-family: sans-serif; font-size: 10px; fill: #000; opacity: 1;">Simplicity (M)</text></g></g><path class="foreground" d="" style="pointer-events: none; display: none; fill: none;"></path></g></g><g class="mark-rect role-mark marks"><path d="M33.857142857142854,2.5h45.85714285714287v45h-45.85714285714287Z" style="fill: #ff6361;"></path><path d="M79.71428571428572,2.5h91.7142857142857v45h-91.7142857142857Z" style="fill: #ffa600;"></path><path d="M171.42857142857142,2.5h122.57142857142853v45h-122.57142857142853Z" style="fill: #bc5090;"></path><path d="M293.99999999999994,2.5h84.00000000000006v45h-84.00000000000006Z" style="fill: #58508d;"></path><path d="M378,2.5h84v45h-84Z" style="fill: #003f5c;"></path><path d="M171.42857142857142,52.5h0v45h0Z" style="fill: #ff6361;"></path><path d="M171.42857142857142,52.5h0v45h0Z" style="fill: #ffa600;"></path><path d="M171.42857142857142,52.5h160.71428571428575v45h-160.71428571428575Z" style="fill: #bc5090;"></path><path d="M332.14285714285717,52.5h214.28571428571428v45h-214.28571428571428Z" style="fill: #58508d;"></path><path d="M546.4285714285714,52.5h53.571428571428555v45h-53.571428571428555Z" style="fill: #003f5c;"></path><path d="M64.28571428571428,102.5h53.571428571428584v45h-53.571428571428584Z" style="fill: #ff6361;"></path><path d="M117.85714285714286,102.5h53.571428571428555v45h-53.571428571428555Z" style="fill: #ffa600;"></path><path d="M171.42857142857142,102.5h76.7142857142857v45h-76.7142857142857Z" style="fill: #bc5090;"></path><path d="M248.1428571428571,102.5h137.5714285714286v45h-137.5714285714286Z" style="fill: #58508d;"></path><path d="M385.7142857142857,102.5h107.14285714285711v45h-107.14285714285711Z" style="fill: #003f5c;"></path><path d="M64.28571428571428,152.5h53.571428571428584v45h-53.571428571428584Z" style="fill: #ff6361;"></path><path d="M117.85714285714286,152.5h53.571428571428555v45h-53.571428571428555Z" style="fill: #ffa600;"></path><path d="M171.42857142857142,152.5h0v45h0Z" style="fill: #bc5090;"></path><path d="M171.42857142857142,152.5h214.2857142857143v45h-214.2857142857143Z" style="fill: #58508d;"></path><path d="M385.7142857142857,152.5h107.14285714285711v45h-107.14285714285711Z" style="fill: #003f5c;"></path><path d="M79.71428571428572,202.5h38.14285714285714v45h-38.14285714285714Z" style="fill: #ff6361;"></path><path d="M117.85714285714286,202.5h53.571428571428555v45h-53.571428571428555Z" style="fill: #ffa600;"></path><path d="M171.42857142857142,202.5h130.2857142857143v45h-130.2857142857143Z" style="fill: #bc5090;"></path><path d="M301.7142857142857,202.5h107.14285714285717v45h-107.14285714285717Z" style="fill: #58508d;"></path><path d="M408.8571428571429,202.5h99.42857142857139v45h-99.42857142857139Z" style="fill: #003f5c;"></path><path d="M171.42857142857142,252.5h0v45h0Z" style="fill: #ff6361;"></path><path d="M64.28571428571428,252.5h107.14285714285714v45h-107.14285714285714Z" style="fill: #ffa600;"></path><path d="M171.42857142857142,252.5h0v45h0Z" style="fill: #bc5090;"></path><path d="M171.42857142857142,252.5h267.8571428571429v45h-267.8571428571429Z" style="fill: #58508d;"></path><path d="M439.2857142857143,252.5h53.571428571428555v45h-53.571428571428555Z" style="fill: #003f5c;"></path></g><g class="mark-group role-legend"><g transform="translate(0,-29)"><path class="background" d="M0,0h302v11h-302Z" style="pointer-events: none; fill: none;"></path><g><g class="mark-group role-legend-entry"><g transform="translate(0,0)"><path class="background" d="M0,0h0v0h0Z" style="pointer-events: none; fill: none;"></path><g><g class="mark-group role-scope"><g transform="translate(0,0)"><path class="background" d="M0,0h37.123046875v11h-37.123046875Z" style="pointer-events: none; fill: none; opacity: 1;"></path><g><g class="mark-symbol role-legend-symbol" style="pointer-events: none;"><path transform="translate(6,6)" d="M-5,-5h10v10h-10Z" style="fill: #ff6361; stroke-width: 1.5; opacity: 1;"></path></g><g class="mark-text role-legend-label" style="pointer-events: none;"><text text-anchor="start" transform="translate(16,9)" style="font-family: sans-serif; font-size: 10px; fill: #000; opacity: 1;">Poor</text></g></g><path class="foreground" d="" style="pointer-events: none; display: none; fill: none;"></path></g><g transform="translate(48,0)"><path class="background" d="M0,0h33.2216796875v11h-33.2216796875Z" style="pointer-events: none; fill: none; opacity: 1;"></path><g><g class="mark-symbol role-legend-symbol" style="pointer-events: none;"><path transform="translate(6,6)" d="M-5,-5h10v10h-10Z" style="fill: #ffa600; stroke-width: 1.5; opacity: 1;"></path></g><g class="mark-text role-legend-label" style="pointer-events: none;"><text text-anchor="start" transform="translate(16,9)" style="font-family: sans-serif; font-size: 10px; fill: #000; opacity: 1;">Fair</text></g></g><path class="foreground" d="" style="pointer-events: none; display: none; fill: none;"></path></g><g transform="translate(92,0)"><path class="background" d="M0,0h68.2412109375v11h-68.2412109375Z" style="pointer-events: none; fill: none; opacity: 1;"></path><g><g class="mark-symbol role-legend-symbol" style="pointer-events: none;"><path transform="translate(6,6)" d="M-5,-5h10v10h-10Z" style="fill: #bc5090; stroke-width: 1.5; opacity: 1;"></path></g><g class="mark-text role-legend-label" style="pointer-events: none;"><text text-anchor="start" transform="translate(16,9)" style="font-family: sans-serif; font-size: 10px; fill: #000; opacity: 1;">Satisfactory</text></g></g><path class="foreground" d="" style="pointer-events: none; display: none; fill: none;"></path></g><g transform="translate(171,0)"><path class="background" d="M0,0h63.255859375v11h-63.255859375Z" style="pointer-events: none; fill: none; opacity: 1;"></path><g><g class="mark-symbol role-legend-symbol" style="pointer-events: none;"><path transform="translate(6,6)" d="M-5,-5h10v10h-10Z" style="fill: #58508d; stroke-width: 1.5; opacity: 1;"></path></g><g class="mark-text role-legend-label" style="pointer-events: none;"><text text-anchor="start" transform="translate(16,9)" style="font-family: sans-serif; font-size: 10px; fill: #000; opacity: 1;">Very Good</text></g></g><path class="foreground" d="" style="pointer-events: none; display: none; fill: none;"></path></g><g transform="translate(245,0)"><path class="background" d="M0,0h56.576171875v11h-56.576171875Z" style="pointer-events: none; fill: none; opacity: 1;"></path><g><g class="mark-symbol role-legend-symbol" style="pointer-events: none;"><path transform="translate(6,6)" d="M-5,-5h10v10h-10Z" style="fill: #003f5c; stroke-width: 1.5; opacity: 1;"></path></g><g class="mark-text role-legend-label" style="pointer-events: none;"><text text-anchor="start" transform="translate(16,9)" style="font-family: sans-serif; font-size: 10px; fill: #000; opacity: 1;">Excellent</text></g></g><path class="foreground" d="" style="pointer-events: none; display: none; fill: none;"></path></g></g></g><path class="foreground" d="" style="pointer-events: none; display: none; fill: none;"></path></g></g></g><path class="foreground" d="" style="pointer-events: none; display: none; fill: none;"></path></g></g></g><path class="foreground" d="" style="display: none; fill: none;"></path></g></g></g></svg>